<mxfile host="app.diagrams.net" modified="2023-03-29T19:42:14.215Z" agent="Mozilla/5.0 (Windows NT 10.0; Win64; x64) AppleWebKit/537.36 (KHTML, like Gecko) Chrome/111.0.0.0 Safari/537.36" etag="zfA69iOk-uSHm3AbXL6t" version="21.1.1" type="device">
  <diagram name="Страница 1" id="8FN7n6Q0-hx2Tn8KXQYq">
    <mxGraphModel dx="980" dy="736" grid="1" gridSize="10" guides="1" tooltips="1" connect="1" arrows="1" fold="1" page="1" pageScale="1" pageWidth="827" pageHeight="1169" math="0" shadow="0">
      <root>
        <mxCell id="0" />
        <mxCell id="1" parent="0" />
        <mxCell id="yytO19MJXBlZ8pP4ni6h-5" style="edgeStyle=orthogonalEdgeStyle;rounded=0;orthogonalLoop=1;jettySize=auto;html=1;entryX=0.5;entryY=0;entryDx=0;entryDy=0;" edge="1" parent="1" source="yytO19MJXBlZ8pP4ni6h-2" target="yytO19MJXBlZ8pP4ni6h-4">
          <mxGeometry relative="1" as="geometry" />
        </mxCell>
        <mxCell id="yytO19MJXBlZ8pP4ni6h-2" value="start" style="ellipse;whiteSpace=wrap;html=1;fillColor=#d5e8d4;strokeColor=#82b366;" vertex="1" parent="1">
          <mxGeometry x="354" y="80" width="120" height="80" as="geometry" />
        </mxCell>
        <mxCell id="yytO19MJXBlZ8pP4ni6h-3" value="end" style="ellipse;whiteSpace=wrap;html=1;fillColor=#d5e8d4;strokeColor=#82b366;" vertex="1" parent="1">
          <mxGeometry x="560" y="390" width="120" height="80" as="geometry" />
        </mxCell>
        <mxCell id="yytO19MJXBlZ8pP4ni6h-9" style="edgeStyle=orthogonalEdgeStyle;rounded=0;orthogonalLoop=1;jettySize=auto;html=1;entryX=0.5;entryY=0;entryDx=0;entryDy=0;" edge="1" parent="1" source="yytO19MJXBlZ8pP4ni6h-4" target="yytO19MJXBlZ8pP4ni6h-8">
          <mxGeometry relative="1" as="geometry" />
        </mxCell>
        <mxCell id="yytO19MJXBlZ8pP4ni6h-4" value="input_array" style="shape=parallelogram;perimeter=parallelogramPerimeter;whiteSpace=wrap;html=1;fixedSize=1;fillColor=#dae8fc;strokeColor=#6c8ebf;" vertex="1" parent="1">
          <mxGeometry x="356" y="200" width="116" height="50" as="geometry" />
        </mxCell>
        <mxCell id="yytO19MJXBlZ8pP4ni6h-11" style="edgeStyle=orthogonalEdgeStyle;rounded=0;orthogonalLoop=1;jettySize=auto;html=1;entryX=0.5;entryY=0;entryDx=0;entryDy=0;" edge="1" parent="1" source="yytO19MJXBlZ8pP4ni6h-8" target="yytO19MJXBlZ8pP4ni6h-10">
          <mxGeometry relative="1" as="geometry" />
        </mxCell>
        <mxCell id="yytO19MJXBlZ8pP4ni6h-8" value="i = 0" style="rounded=0;whiteSpace=wrap;html=1;fillColor=#e1d5e7;strokeColor=#9673a6;" vertex="1" parent="1">
          <mxGeometry x="354" y="290" width="120" height="60" as="geometry" />
        </mxCell>
        <mxCell id="yytO19MJXBlZ8pP4ni6h-13" value="YES" style="edgeStyle=orthogonalEdgeStyle;rounded=0;orthogonalLoop=1;jettySize=auto;html=1;entryX=0.5;entryY=0;entryDx=0;entryDy=0;" edge="1" parent="1" source="yytO19MJXBlZ8pP4ni6h-10" target="yytO19MJXBlZ8pP4ni6h-12">
          <mxGeometry relative="1" as="geometry" />
        </mxCell>
        <mxCell id="yytO19MJXBlZ8pP4ni6h-23" style="edgeStyle=orthogonalEdgeStyle;rounded=0;orthogonalLoop=1;jettySize=auto;html=1;entryX=0;entryY=0.5;entryDx=0;entryDy=0;" edge="1" parent="1" source="yytO19MJXBlZ8pP4ni6h-10" target="yytO19MJXBlZ8pP4ni6h-3">
          <mxGeometry relative="1" as="geometry" />
        </mxCell>
        <mxCell id="yytO19MJXBlZ8pP4ni6h-10" value="i &amp;lt; input_array.Length" style="rhombus;whiteSpace=wrap;html=1;fillColor=#fff2cc;strokeColor=#d6b656;" vertex="1" parent="1">
          <mxGeometry x="332" y="390" width="164" height="80" as="geometry" />
        </mxCell>
        <mxCell id="yytO19MJXBlZ8pP4ni6h-16" value="YES" style="edgeStyle=orthogonalEdgeStyle;rounded=0;orthogonalLoop=1;jettySize=auto;html=1;entryX=0.5;entryY=0;entryDx=0;entryDy=0;" edge="1" parent="1" source="yytO19MJXBlZ8pP4ni6h-12" target="yytO19MJXBlZ8pP4ni6h-15">
          <mxGeometry relative="1" as="geometry" />
        </mxCell>
        <mxCell id="yytO19MJXBlZ8pP4ni6h-20" style="edgeStyle=orthogonalEdgeStyle;rounded=0;orthogonalLoop=1;jettySize=auto;html=1;entryX=1;entryY=0.5;entryDx=0;entryDy=0;" edge="1" parent="1" source="yytO19MJXBlZ8pP4ni6h-12" target="yytO19MJXBlZ8pP4ni6h-19">
          <mxGeometry relative="1" as="geometry" />
        </mxCell>
        <mxCell id="yytO19MJXBlZ8pP4ni6h-12" value="input_array[i] &amp;lt; 4" style="rhombus;whiteSpace=wrap;html=1;fillColor=#fff2cc;strokeColor=#d6b656;" vertex="1" parent="1">
          <mxGeometry x="332" y="510" width="164" height="80" as="geometry" />
        </mxCell>
        <mxCell id="yytO19MJXBlZ8pP4ni6h-21" style="edgeStyle=orthogonalEdgeStyle;rounded=0;orthogonalLoop=1;jettySize=auto;html=1;entryX=0.5;entryY=1;entryDx=0;entryDy=0;" edge="1" parent="1" source="yytO19MJXBlZ8pP4ni6h-15" target="yytO19MJXBlZ8pP4ni6h-19">
          <mxGeometry relative="1" as="geometry" />
        </mxCell>
        <mxCell id="yytO19MJXBlZ8pP4ni6h-15" value="input_array[i]" style="rounded=0;whiteSpace=wrap;html=1;fillColor=#e1d5e7;strokeColor=#9673a6;" vertex="1" parent="1">
          <mxGeometry x="354" y="630" width="120" height="60" as="geometry" />
        </mxCell>
        <mxCell id="yytO19MJXBlZ8pP4ni6h-22" style="edgeStyle=orthogonalEdgeStyle;rounded=0;orthogonalLoop=1;jettySize=auto;html=1;entryX=0;entryY=0.5;entryDx=0;entryDy=0;" edge="1" parent="1" source="yytO19MJXBlZ8pP4ni6h-19" target="yytO19MJXBlZ8pP4ni6h-10">
          <mxGeometry relative="1" as="geometry">
            <Array as="points">
              <mxPoint x="230" y="430" />
            </Array>
          </mxGeometry>
        </mxCell>
        <mxCell id="yytO19MJXBlZ8pP4ni6h-19" value="i = i + 1" style="rounded=0;whiteSpace=wrap;html=1;fillColor=#e1d5e7;strokeColor=#9673a6;" vertex="1" parent="1">
          <mxGeometry x="170" y="520" width="120" height="60" as="geometry" />
        </mxCell>
      </root>
    </mxGraphModel>
  </diagram>
</mxfile>
